<?xml version="1.0" standalone="no"?>
<!DOCTYPE svg PUBLIC "-//W3C//DTD SVG 20010904//EN"
 "http://www.w3.org/TR/2001/REC-SVG-20010904/DTD/svg10.dtd">
<svg version="1.0" xmlns="http://www.w3.org/2000/svg"
 width="1024.000000pt" height="1024.000000pt" viewBox="0 0 1024.000000 1024.000000"
 preserveAspectRatio="xMidYMid meet">

<g transform="translate(0.000000,1024.000000) scale(0.100000,-0.100000)"
fill="#000000" stroke="none">
<path d="M4990 8674 c-630 -44 -1190 -265 -1660 -656 -410 -341 -738 -840
-889 -1351 -73 -250 -111 -503 -111 -752 0 -436 88 -803 288 -1201 181 -360
648 -1060 1107 -1659 486 -634 1192 -1459 1314 -1537 90 -57 190 -28 302 88
213 221 625 703 1003 1174 422 525 1026 1396 1245 1796 163 297 272 597 321
887 61 349 44 742 -45 1088 -165 640 -536 1187 -1075 1585 -297 220 -744 411
-1135 488 -196 38 -502 61 -665 50z m-350 -409 c35 -35 33 -87 -5 -125 -23
-23 -48 -33 -110 -45 -96 -20 -263 -80 -400 -145 -530 -248 -991 -769 -1179
-1330 -55 -167 -91 -328 -107 -484 -15 -150 -6 -489 15 -601 32 -163 32 -151
-7 -190 -39 -39 -78 -46 -115 -19 -34 24 -48 60 -68 179 -16 90 -19 161 -19
385 1 301 7 356 70 605 162 644 622 1237 1214 1566 156 87 303 146 506 204
132 38 167 38 205 0z m1214 -10 c312 -94 594 -244 873 -461 236 -184 487 -492
630 -769 162 -315 263 -701 263 -1001 0 -126 -20 -163 -88 -164 -83 0 -98 32
-105 230 -18 491 -251 1003 -627 1380 -311 311 -665 518 -1092 635 -96 26
-128 97 -69 156 39 39 71 38 215 -6z m-599 -7 c26 -12 26 -13 20 -83 -8 -81 6
-122 51 -151 21 -14 31 -15 63 -5 52 15 86 14 101 -4 15 -19 24 -120 16 -179
-10 -66 -37 -82 -98 -59 -44 16 -48 16 -73 -1 -37 -24 -55 -74 -55 -149 l0
-64 80 -7 c111 -10 295 -49 358 -76 28 -12 66 -38 82 -57 42 -47 40 -87 -7
-154 -156 -227 -193 -301 -225 -459 -11 -52 -22 -97 -25 -100 -2 -3 -185 -4
-406 -4 l-400 1 -18 84 c-30 148 -89 279 -183 406 -61 83 -76 115 -76 162 0
76 56 114 237 160 43 11 129 26 191 33 l112 12 0 58 c0 69 -23 131 -57 153
-22 15 -28 15 -70 1 -42 -14 -49 -14 -70 -1 -21 14 -23 22 -23 114 0 82 3 103
19 122 18 22 21 22 70 11 44 -10 57 -9 81 3 50 26 62 54 58 141 -3 75 -2 79
22 91 32 16 190 17 225 1z m320 -1783 c6 -22 19 -54 28 -71 9 -17 13 -34 10
-38 -10 -10 -943 -7 -943 3 0 5 11 33 24 62 13 30 26 62 29 72 6 16 33 17 423
15 l417 -3 12 -40z m176 -296 c44 -15 78 -46 96 -88 19 -44 9 -84 -29 -116
l-30 -25 -639 0 c-551 0 -644 2 -669 15 -86 45 -59 174 45 210 53 19 1172 22
1226 4z m-307 -489 c15 -179 77 -458 140 -624 31 -82 129 -279 156 -314 11
-14 20 -29 20 -33 0 -5 -276 -9 -615 -9 -338 0 -615 4 -615 8 0 4 25 53 55
107 60 108 118 249 160 387 36 121 84 357 91 453 3 44 7 86 10 93 2 9 71 12
297 12 l294 0 7 -80z m594 -1273 c67 -62 138 -134 157 -162 47 -68 65 -146 65
-277 l0 -108 -1120 0 -1120 0 0 113 c0 198 38 271 231 440 l120 107 772 0 772
-1 123 -112z m170 -732 c8 -8 -38 -92 -64 -117 -65 -60 -34 -59 -1002 -58
-593 0 -896 3 -923 10 -67 18 -149 110 -149 166 0 16 67 17 1067 10 587 -4
1069 -9 1071 -11z"/>
<path d="M4510 1336 c-579 -40 -1000 -142 -1000 -244 0 -127 635 -207 1635
-206 567 1 981 23 1289 70 248 37 336 72 336 135 0 99 -318 183 -880 235 -240
22 -1108 28 -1380 10z"/>
</g>
</svg>
