<svg xmlns="http://www.w3.org/2000/svg" data-name="Layer 1" viewBox="0 0 100 125" x="0px" y="0px"><title>A29</title><path d="M37.97278,27.12231,26.32349,6.7973a3.57441,3.57441,0,0,0-3.79663-1.72876l-9.9021,1.964a6.09921,6.09921,0,0,0-4.52857,3.75018C.60742,30.26929,6.82642,55.77936,25.42126,74.42926c.0243.02448.12488.12512.14954.1496,18.6499,18.59479,44.15991,24.81378,63.64649,17.325a6.09918,6.09918,0,0,0,3.75024-4.5285l1.96411-9.90216a3.57454,3.57454,0,0,0-1.72888-3.7967L72.87769,62.02728a3.56933,3.56933,0,0,0-4.29969.56836c-3.81726,3.81067-11.96618,11.94513-11.96985,11.944A47.16825,47.16825,0,0,1,37.28662,62.71338,47.16876,47.16876,0,0,1,25.46045,43.392c-.00122-.00373,8.1333-8.15271,11.944-11.96991A3.56923,3.56923,0,0,0,37.97278,27.12231Z"/><text x="0" y="115" fill="#000000" font-size="5px" font-weight="bold" font-family="'Helvetica Neue', Helvetica, Arial-Unicode, Arial, Sans-serif">Created by Hrbon</text><text x="0" y="120" fill="#000000" font-size="5px" font-weight="bold" font-family="'Helvetica Neue', Helvetica, Arial-Unicode, Arial, Sans-serif">from the Noun Project</text></svg>